%TF.GenerationSoftware,KiCad,Pcbnew,7.0.1*%
%TF.CreationDate,2023-04-11T14:03:01+02:00*%
%TF.ProjectId,sistabossen,73697374-6162-46f7-9373-656e2e6b6963,rev?*%
%TF.SameCoordinates,Original*%
%TF.FileFunction,Copper,L1,Top*%
%TF.FilePolarity,Positive*%
%FSLAX46Y46*%
G04 Gerber Fmt 4.6, Leading zero omitted, Abs format (unit mm)*
G04 Created by KiCad (PCBNEW 7.0.1) date 2023-04-11 14:03:01*
%MOMM*%
%LPD*%
G01*
G04 APERTURE LIST*
G04 Aperture macros list*
%AMRoundRect*
0 Rectangle with rounded corners*
0 $1 Rounding radius*
0 $2 $3 $4 $5 $6 $7 $8 $9 X,Y pos of 4 corners*
0 Add a 4 corners polygon primitive as box body*
4,1,4,$2,$3,$4,$5,$6,$7,$8,$9,$2,$3,0*
0 Add four circle primitives for the rounded corners*
1,1,$1+$1,$2,$3*
1,1,$1+$1,$4,$5*
1,1,$1+$1,$6,$7*
1,1,$1+$1,$8,$9*
0 Add four rect primitives between the rounded corners*
20,1,$1+$1,$2,$3,$4,$5,0*
20,1,$1+$1,$4,$5,$6,$7,0*
20,1,$1+$1,$6,$7,$8,$9,0*
20,1,$1+$1,$8,$9,$2,$3,0*%
G04 Aperture macros list end*
%TA.AperFunction,SMDPad,CuDef*%
%ADD10R,1.550000X0.600000*%
%TD*%
%TA.AperFunction,ComponentPad*%
%ADD11C,0.600000*%
%TD*%
%TA.AperFunction,SMDPad,CuDef*%
%ADD12R,2.600000X3.100000*%
%TD*%
%TA.AperFunction,SMDPad,CuDef*%
%ADD13R,2.950000X4.500000*%
%TD*%
%TA.AperFunction,SMDPad,CuDef*%
%ADD14RoundRect,0.250000X-0.475000X0.337500X-0.475000X-0.337500X0.475000X-0.337500X0.475000X0.337500X0*%
%TD*%
%TA.AperFunction,ComponentPad*%
%ADD15R,2.200000X2.200000*%
%TD*%
%TA.AperFunction,ComponentPad*%
%ADD16C,2.200000*%
%TD*%
%TA.AperFunction,ComponentPad*%
%ADD17R,1.700000X1.700000*%
%TD*%
%TA.AperFunction,ComponentPad*%
%ADD18O,1.700000X1.700000*%
%TD*%
%TA.AperFunction,SMDPad,CuDef*%
%ADD19RoundRect,0.250000X0.475000X-0.337500X0.475000X0.337500X-0.475000X0.337500X-0.475000X-0.337500X0*%
%TD*%
%TA.AperFunction,SMDPad,CuDef*%
%ADD20RoundRect,0.250000X-0.350000X-0.450000X0.350000X-0.450000X0.350000X0.450000X-0.350000X0.450000X0*%
%TD*%
%TA.AperFunction,SMDPad,CuDef*%
%ADD21RoundRect,0.250000X-0.550000X1.500000X-0.550000X-1.500000X0.550000X-1.500000X0.550000X1.500000X0*%
%TD*%
%TA.AperFunction,ComponentPad*%
%ADD22R,2.500000X2.500000*%
%TD*%
%TA.AperFunction,ComponentPad*%
%ADD23C,0.800000*%
%TD*%
%TA.AperFunction,ComponentPad*%
%ADD24C,6.400000*%
%TD*%
%TA.AperFunction,SMDPad,CuDef*%
%ADD25RoundRect,0.250000X0.350000X0.450000X-0.350000X0.450000X-0.350000X-0.450000X0.350000X-0.450000X0*%
%TD*%
%TA.AperFunction,SMDPad,CuDef*%
%ADD26R,5.400000X4.900000*%
%TD*%
%TA.AperFunction,SMDPad,CuDef*%
%ADD27RoundRect,0.250000X-1.000000X1.400000X-1.000000X-1.400000X1.000000X-1.400000X1.000000X1.400000X0*%
%TD*%
%TA.AperFunction,ViaPad*%
%ADD28C,0.800000*%
%TD*%
%TA.AperFunction,Conductor*%
%ADD29C,0.250000*%
%TD*%
G04 APERTURE END LIST*
D10*
%TO.P,U1,1,BOOT*%
%TO.N,Net-(U1-BOOT)*%
X99200000Y-56092056D03*
%TO.P,U1,2,NC*%
%TO.N,unconnected-(U1-NC-Pad2)*%
X99200000Y-57362056D03*
%TO.P,U1,3,NC*%
%TO.N,unconnected-(U1-NC-Pad3)*%
X99200000Y-58632056D03*
%TO.P,U1,4,VSENSE*%
%TO.N,Net-(J3-Pin_1)*%
X99200000Y-59902056D03*
%TO.P,U1,5,EN*%
%TO.N,unconnected-(U1-EN-Pad5)*%
X104600000Y-59902056D03*
%TO.P,U1,6,GND*%
%TO.N,GND*%
X104600000Y-58632056D03*
%TO.P,U1,7,VIN*%
%TO.N,/VIN*%
X104600000Y-57362056D03*
%TO.P,U1,8,PH*%
%TO.N,/PH*%
X104600000Y-56092056D03*
D11*
%TO.P,U1,9,GNDPAD*%
%TO.N,GND*%
X101300000Y-56197056D03*
X101300000Y-57397056D03*
X101300000Y-58697056D03*
X101300000Y-59797056D03*
D12*
X101900000Y-57997056D03*
D13*
X101900000Y-57997056D03*
D11*
X102500000Y-56197056D03*
X102500000Y-57397056D03*
X102500000Y-58697056D03*
X102500000Y-59797056D03*
%TD*%
D14*
%TO.P,C4,1*%
%TO.N,/VIN*%
X115500000Y-57375000D03*
%TO.P,C4,2*%
%TO.N,GND*%
X115500000Y-59450000D03*
%TD*%
D15*
%TO.P,J2,1,Pin_1*%
%TO.N,/VOUT*%
X73000000Y-70427056D03*
D16*
%TO.P,J2,2,Pin_2*%
%TO.N,GND*%
X73000000Y-72967056D03*
%TD*%
D17*
%TO.P,J3,1,Pin_1*%
%TO.N,Net-(J3-Pin_1)*%
X92960000Y-65697056D03*
D18*
%TO.P,J3,2,Pin_2*%
%TO.N,Net-(J3-Pin_2)*%
X95500000Y-65697056D03*
%TD*%
D17*
%TO.P,J5,1,Pin_1*%
%TO.N,Net-(J3-Pin_1)*%
X92960000Y-73697056D03*
D18*
%TO.P,J5,2,Pin_2*%
%TO.N,Net-(J5-Pin_2)*%
X95500000Y-73697056D03*
%TD*%
D17*
%TO.P,J6,1,Pin_1*%
%TO.N,Net-(J3-Pin_1)*%
X92960000Y-77697056D03*
D18*
%TO.P,J6,2,Pin_2*%
%TO.N,Net-(J6-Pin_2)*%
X95500000Y-77697056D03*
%TD*%
D14*
%TO.P,C1,1*%
%TO.N,/VIN*%
X111000000Y-57412500D03*
%TO.P,C1,2*%
%TO.N,GND*%
X111000000Y-59487500D03*
%TD*%
D17*
%TO.P,J4,1,Pin_1*%
%TO.N,Net-(J3-Pin_1)*%
X92960000Y-69697056D03*
D18*
%TO.P,J4,2,Pin_2*%
%TO.N,Net-(J4-Pin_2)*%
X95500000Y-69697056D03*
%TD*%
D15*
%TO.P,J1,1,Pin_1*%
%TO.N,GND*%
X112960000Y-66737056D03*
D16*
%TO.P,J1,2,Pin_2*%
%TO.N,/VIN*%
X112960000Y-64197056D03*
%TD*%
D19*
%TO.P,C2,1*%
%TO.N,Net-(U1-BOOT)*%
X97000000Y-53234556D03*
%TO.P,C2,2*%
%TO.N,/PH*%
X97000000Y-51159556D03*
%TD*%
D20*
%TO.P,R4,1*%
%TO.N,Net-(J5-Pin_2)*%
X98960000Y-73697056D03*
%TO.P,R4,2*%
%TO.N,GND*%
X100960000Y-73697056D03*
%TD*%
%TO.P,R2,1*%
%TO.N,Net-(J3-Pin_2)*%
X98960000Y-65697056D03*
%TO.P,R2,2*%
%TO.N,GND*%
X100960000Y-65697056D03*
%TD*%
%TO.P,R3,1*%
%TO.N,Net-(J4-Pin_2)*%
X98960000Y-69697056D03*
%TO.P,R3,2*%
%TO.N,GND*%
X100960000Y-69697056D03*
%TD*%
D21*
%TO.P,C3,1*%
%TO.N,/VOUT*%
X83000000Y-68897056D03*
%TO.P,C3,2*%
%TO.N,GND*%
X83000000Y-74497056D03*
%TD*%
D22*
%TO.P,TP3,1,1*%
%TO.N,/VOUT*%
X70500000Y-58000000D03*
%TD*%
D23*
%TO.P,H3,1,1*%
%TO.N,GND*%
X113797056Y-81197056D03*
X114500000Y-79500000D03*
X114500000Y-82894112D03*
X116197056Y-78797056D03*
D24*
X116197056Y-81197056D03*
D23*
X116197056Y-83597056D03*
X117894112Y-79500000D03*
X117894112Y-82894112D03*
X118597056Y-81197056D03*
%TD*%
D20*
%TO.P,R5,1*%
%TO.N,Net-(J6-Pin_2)*%
X98960000Y-77697056D03*
%TO.P,R5,2*%
%TO.N,GND*%
X100960000Y-77697056D03*
%TD*%
D25*
%TO.P,R1,1*%
%TO.N,Net-(J3-Pin_1)*%
X95500000Y-60197056D03*
%TO.P,R1,2*%
%TO.N,/VOUT*%
X93500000Y-60197056D03*
%TD*%
D23*
%TO.P,H2,1,1*%
%TO.N,GND*%
X113902944Y-43697056D03*
X114605888Y-42000000D03*
X114605888Y-45394112D03*
X116302944Y-41297056D03*
D24*
X116302944Y-43697056D03*
D23*
X116302944Y-46097056D03*
X118000000Y-42000000D03*
X118000000Y-45394112D03*
X118702944Y-43697056D03*
%TD*%
D22*
%TO.P,TP1,1,1*%
%TO.N,/VIN*%
X116500000Y-53000000D03*
%TD*%
D23*
%TO.P,H1,1,1*%
%TO.N,GND*%
X68600000Y-44000000D03*
X69302944Y-42302944D03*
X69302944Y-45697056D03*
X71000000Y-41600000D03*
D24*
X71000000Y-44000000D03*
D23*
X71000000Y-46400000D03*
X72697056Y-42302944D03*
X72697056Y-45697056D03*
X73400000Y-44000000D03*
%TD*%
D26*
%TO.P,L1,1,1*%
%TO.N,/PH*%
X83097056Y-50100000D03*
%TO.P,L1,2,2*%
%TO.N,/VOUT*%
X83097056Y-61900000D03*
%TD*%
D27*
%TO.P,D1,1,K*%
%TO.N,/PH*%
X110400000Y-49197056D03*
%TO.P,D1,2,A*%
%TO.N,GND*%
X103600000Y-49197056D03*
%TD*%
D23*
%TO.P,H4,1,1*%
%TO.N,GND*%
X68902944Y-81197056D03*
X69605888Y-79500000D03*
X69605888Y-82894112D03*
X71302944Y-78797056D03*
D24*
X71302944Y-81197056D03*
D23*
X71302944Y-83597056D03*
X73000000Y-79500000D03*
X73000000Y-82894112D03*
X73702944Y-81197056D03*
%TD*%
D28*
%TO.N,GND*%
X101000000Y-80500000D03*
X111000000Y-61000000D03*
X101000000Y-49500000D03*
X83000000Y-77500000D03*
%TD*%
D29*
%TO.N,/VIN*%
X116500000Y-56375000D02*
X116500000Y-53000000D01*
X115500000Y-57375000D02*
X116500000Y-56375000D01*
X110949556Y-57362056D02*
X104600000Y-57362056D01*
X115500000Y-57375000D02*
X111037500Y-57375000D01*
X111000000Y-57412500D02*
X110949556Y-57362056D01*
X111037500Y-57375000D02*
X111000000Y-57412500D01*
%TO.N,GND*%
X103600000Y-49197056D02*
X103297056Y-49500000D01*
X102565000Y-58632056D02*
X102500000Y-58697056D01*
X100960000Y-80460000D02*
X101000000Y-80500000D01*
X101300000Y-59797056D02*
X101300000Y-58697056D01*
X103297056Y-49500000D02*
X101000000Y-49500000D01*
X108500000Y-59500000D02*
X107632056Y-58632056D01*
X100960000Y-69697056D02*
X100960000Y-73697056D01*
X104600000Y-58632056D02*
X102565000Y-58632056D01*
X115500000Y-59450000D02*
X111037500Y-59450000D01*
X102500000Y-58697056D02*
X102500000Y-59797056D01*
X102500000Y-59797056D02*
X101300000Y-59797056D01*
X100960000Y-65697056D02*
X100960000Y-69697056D01*
X111000000Y-59487500D02*
X111000000Y-61000000D01*
X111037500Y-59450000D02*
X111000000Y-59487500D01*
X100960000Y-77697056D02*
X100960000Y-80460000D01*
X83000000Y-74497056D02*
X83000000Y-77500000D01*
X102500000Y-58697056D02*
X101300000Y-58697056D01*
X111000000Y-59487500D02*
X110987500Y-59500000D01*
X100960000Y-73697056D02*
X100960000Y-77697056D01*
X110987500Y-59500000D02*
X108500000Y-59500000D01*
X107632056Y-58632056D02*
X104600000Y-58632056D01*
%TO.N,Net-(U1-BOOT)*%
X97000000Y-53234556D02*
X99200000Y-55434556D01*
X99200000Y-55434556D02*
X99200000Y-56092056D01*
%TO.N,/PH*%
X110400000Y-46400000D02*
X110400000Y-49197056D01*
X109000000Y-45000000D02*
X110400000Y-46400000D01*
X97000000Y-45000000D02*
X109000000Y-45000000D01*
X97000000Y-51159556D02*
X97000000Y-45000000D01*
X85000000Y-45000000D02*
X97000000Y-45000000D01*
X83097056Y-50100000D02*
X83097056Y-46902944D01*
X110400000Y-53600000D02*
X110400000Y-49197056D01*
X104600000Y-56092056D02*
X107907944Y-56092056D01*
X83097056Y-46902944D02*
X85000000Y-45000000D01*
X107907944Y-56092056D02*
X110400000Y-53600000D01*
%TO.N,/VOUT*%
X83097056Y-61900000D02*
X83097056Y-68800000D01*
X83000000Y-68897056D02*
X81470000Y-70427056D01*
X91797056Y-61900000D02*
X83097056Y-61900000D01*
X73000000Y-66500000D02*
X73000000Y-70427056D01*
X70500000Y-58000000D02*
X70500000Y-64000000D01*
X83097056Y-68800000D02*
X83000000Y-68897056D01*
X70500000Y-64000000D02*
X73000000Y-66500000D01*
X93500000Y-60197056D02*
X91797056Y-61900000D01*
X81470000Y-70427056D02*
X73000000Y-70427056D01*
%TO.N,Net-(J3-Pin_1)*%
X95500000Y-62000000D02*
X92960000Y-64540000D01*
X92960000Y-69697056D02*
X92960000Y-65697056D01*
X95795000Y-59902056D02*
X99200000Y-59902056D01*
X95500000Y-60197056D02*
X95795000Y-59902056D01*
X92960000Y-64540000D02*
X92960000Y-65697056D01*
X92960000Y-73697056D02*
X92960000Y-69697056D01*
X92960000Y-77697056D02*
X92960000Y-73697056D01*
X95500000Y-60197056D02*
X95500000Y-62000000D01*
%TO.N,Net-(J3-Pin_2)*%
X98960000Y-65697056D02*
X95500000Y-65697056D01*
%TO.N,Net-(J4-Pin_2)*%
X98960000Y-69697056D02*
X95500000Y-69697056D01*
%TO.N,Net-(J5-Pin_2)*%
X98960000Y-73697056D02*
X95500000Y-73697056D01*
%TO.N,Net-(J6-Pin_2)*%
X98960000Y-77697056D02*
X95500000Y-77697056D01*
%TD*%
M02*
