%TF.GenerationSoftware,KiCad,Pcbnew,7.0.1*%
%TF.CreationDate,2023-04-11T14:03:01+02:00*%
%TF.ProjectId,sistabossen,73697374-6162-46f7-9373-656e2e6b6963,rev?*%
%TF.SameCoordinates,Original*%
%TF.FileFunction,Soldermask,Top*%
%TF.FilePolarity,Negative*%
%FSLAX46Y46*%
G04 Gerber Fmt 4.6, Leading zero omitted, Abs format (unit mm)*
G04 Created by KiCad (PCBNEW 7.0.1) date 2023-04-11 14:03:01*
%MOMM*%
%LPD*%
G01*
G04 APERTURE LIST*
G04 Aperture macros list*
%AMRoundRect*
0 Rectangle with rounded corners*
0 $1 Rounding radius*
0 $2 $3 $4 $5 $6 $7 $8 $9 X,Y pos of 4 corners*
0 Add a 4 corners polygon primitive as box body*
4,1,4,$2,$3,$4,$5,$6,$7,$8,$9,$2,$3,0*
0 Add four circle primitives for the rounded corners*
1,1,$1+$1,$2,$3*
1,1,$1+$1,$4,$5*
1,1,$1+$1,$6,$7*
1,1,$1+$1,$8,$9*
0 Add four rect primitives between the rounded corners*
20,1,$1+$1,$2,$3,$4,$5,0*
20,1,$1+$1,$4,$5,$6,$7,0*
20,1,$1+$1,$6,$7,$8,$9,0*
20,1,$1+$1,$8,$9,$2,$3,0*%
G04 Aperture macros list end*
%ADD10R,1.550000X0.600000*%
%ADD11R,2.600000X3.100000*%
%ADD12RoundRect,0.250000X-0.475000X0.337500X-0.475000X-0.337500X0.475000X-0.337500X0.475000X0.337500X0*%
%ADD13C,1.100000*%
%ADD14R,2.200000X2.200000*%
%ADD15C,2.200000*%
%ADD16R,1.700000X1.700000*%
%ADD17O,1.700000X1.700000*%
%ADD18RoundRect,0.250000X0.475000X-0.337500X0.475000X0.337500X-0.475000X0.337500X-0.475000X-0.337500X0*%
%ADD19RoundRect,0.250000X-0.350000X-0.450000X0.350000X-0.450000X0.350000X0.450000X-0.350000X0.450000X0*%
%ADD20RoundRect,0.250000X-0.550000X1.500000X-0.550000X-1.500000X0.550000X-1.500000X0.550000X1.500000X0*%
%ADD21R,2.500000X2.500000*%
%ADD22C,0.800000*%
%ADD23C,6.400000*%
%ADD24RoundRect,0.250000X0.350000X0.450000X-0.350000X0.450000X-0.350000X-0.450000X0.350000X-0.450000X0*%
%ADD25R,5.400000X4.900000*%
%ADD26RoundRect,0.250000X-1.000000X1.400000X-1.000000X-1.400000X1.000000X-1.400000X1.000000X1.400000X0*%
G04 APERTURE END LIST*
D10*
%TO.C,U1*%
X99200000Y-56092056D03*
X99200000Y-57362056D03*
X99200000Y-58632056D03*
X99200000Y-59902056D03*
X104600000Y-59902056D03*
X104600000Y-58632056D03*
X104600000Y-57362056D03*
X104600000Y-56092056D03*
D11*
X101900000Y-57997056D03*
%TD*%
D12*
%TO.C,C4*%
X115500000Y-57375000D03*
X115500000Y-59450000D03*
%TD*%
D13*
%TO.C,J2*%
X70460000Y-70427056D03*
X70460000Y-72967056D03*
D14*
X73000000Y-70427056D03*
D15*
X73000000Y-72967056D03*
%TD*%
D16*
%TO.C,J3*%
X92960000Y-65697056D03*
D17*
X95500000Y-65697056D03*
%TD*%
D16*
%TO.C,J5*%
X92960000Y-73697056D03*
D17*
X95500000Y-73697056D03*
%TD*%
D16*
%TO.C,J6*%
X92960000Y-77697056D03*
D17*
X95500000Y-77697056D03*
%TD*%
D12*
%TO.C,C1*%
X111000000Y-57412500D03*
X111000000Y-59487500D03*
%TD*%
D16*
%TO.C,J4*%
X92960000Y-69697056D03*
D17*
X95500000Y-69697056D03*
%TD*%
D13*
%TO.C,J1*%
X115500000Y-66737056D03*
X115500000Y-64197056D03*
D14*
X112960000Y-66737056D03*
D15*
X112960000Y-64197056D03*
%TD*%
D18*
%TO.C,C2*%
X97000000Y-53234556D03*
X97000000Y-51159556D03*
%TD*%
D19*
%TO.C,R4*%
X98960000Y-73697056D03*
X100960000Y-73697056D03*
%TD*%
%TO.C,R2*%
X98960000Y-65697056D03*
X100960000Y-65697056D03*
%TD*%
%TO.C,R3*%
X98960000Y-69697056D03*
X100960000Y-69697056D03*
%TD*%
D20*
%TO.C,C3*%
X83000000Y-68897056D03*
X83000000Y-74497056D03*
%TD*%
D21*
%TO.C,TP3*%
X70500000Y-58000000D03*
%TD*%
D22*
%TO.C,H3*%
X113797056Y-81197056D03*
X114500000Y-79500000D03*
X114500000Y-82894112D03*
X116197056Y-78797056D03*
D23*
X116197056Y-81197056D03*
D22*
X116197056Y-83597056D03*
X117894112Y-79500000D03*
X117894112Y-82894112D03*
X118597056Y-81197056D03*
%TD*%
D19*
%TO.C,R5*%
X98960000Y-77697056D03*
X100960000Y-77697056D03*
%TD*%
D24*
%TO.C,R1*%
X95500000Y-60197056D03*
X93500000Y-60197056D03*
%TD*%
D22*
%TO.C,H2*%
X113902944Y-43697056D03*
X114605888Y-42000000D03*
X114605888Y-45394112D03*
X116302944Y-41297056D03*
D23*
X116302944Y-43697056D03*
D22*
X116302944Y-46097056D03*
X118000000Y-42000000D03*
X118000000Y-45394112D03*
X118702944Y-43697056D03*
%TD*%
D21*
%TO.C,TP1*%
X116500000Y-53000000D03*
%TD*%
D22*
%TO.C,H1*%
X68600000Y-44000000D03*
X69302944Y-42302944D03*
X69302944Y-45697056D03*
X71000000Y-41600000D03*
D23*
X71000000Y-44000000D03*
D22*
X71000000Y-46400000D03*
X72697056Y-42302944D03*
X72697056Y-45697056D03*
X73400000Y-44000000D03*
%TD*%
D25*
%TO.C,L1*%
X83097056Y-50100000D03*
X83097056Y-61900000D03*
%TD*%
D26*
%TO.C,D1*%
X110400000Y-49197056D03*
X103600000Y-49197056D03*
%TD*%
D22*
%TO.C,H4*%
X68902944Y-81197056D03*
X69605888Y-79500000D03*
X69605888Y-82894112D03*
X71302944Y-78797056D03*
D23*
X71302944Y-81197056D03*
D22*
X71302944Y-83597056D03*
X73000000Y-79500000D03*
X73000000Y-82894112D03*
X73702944Y-81197056D03*
%TD*%
M02*
