%TF.GenerationSoftware,KiCad,Pcbnew,7.0.1*%
%TF.CreationDate,2023-04-21T16:13:52+02:00*%
%TF.ProjectId,sistabossen,73697374-6162-46f7-9373-656e2e6b6963,rev?*%
%TF.SameCoordinates,Original*%
%TF.FileFunction,Copper,L1,Top*%
%TF.FilePolarity,Positive*%
%FSLAX46Y46*%
G04 Gerber Fmt 4.6, Leading zero omitted, Abs format (unit mm)*
G04 Created by KiCad (PCBNEW 7.0.1) date 2023-04-21 16:13:52*
%MOMM*%
%LPD*%
G01*
G04 APERTURE LIST*
G04 Aperture macros list*
%AMRoundRect*
0 Rectangle with rounded corners*
0 $1 Rounding radius*
0 $2 $3 $4 $5 $6 $7 $8 $9 X,Y pos of 4 corners*
0 Add a 4 corners polygon primitive as box body*
4,1,4,$2,$3,$4,$5,$6,$7,$8,$9,$2,$3,0*
0 Add four circle primitives for the rounded corners*
1,1,$1+$1,$2,$3*
1,1,$1+$1,$4,$5*
1,1,$1+$1,$6,$7*
1,1,$1+$1,$8,$9*
0 Add four rect primitives between the rounded corners*
20,1,$1+$1,$2,$3,$4,$5,0*
20,1,$1+$1,$4,$5,$6,$7,0*
20,1,$1+$1,$6,$7,$8,$9,0*
20,1,$1+$1,$8,$9,$2,$3,0*%
G04 Aperture macros list end*
%TA.AperFunction,SMDPad,CuDef*%
%ADD10R,1.550000X0.600000*%
%TD*%
%TA.AperFunction,ComponentPad*%
%ADD11C,0.600000*%
%TD*%
%TA.AperFunction,SMDPad,CuDef*%
%ADD12R,2.600000X3.100000*%
%TD*%
%TA.AperFunction,SMDPad,CuDef*%
%ADD13R,2.950000X4.500000*%
%TD*%
%TA.AperFunction,SMDPad,CuDef*%
%ADD14RoundRect,0.250000X-0.475000X0.337500X-0.475000X-0.337500X0.475000X-0.337500X0.475000X0.337500X0*%
%TD*%
%TA.AperFunction,ComponentPad*%
%ADD15R,2.200000X2.200000*%
%TD*%
%TA.AperFunction,ComponentPad*%
%ADD16C,2.200000*%
%TD*%
%TA.AperFunction,ComponentPad*%
%ADD17R,1.700000X1.700000*%
%TD*%
%TA.AperFunction,ComponentPad*%
%ADD18O,1.700000X1.700000*%
%TD*%
%TA.AperFunction,SMDPad,CuDef*%
%ADD19RoundRect,0.250000X0.475000X-0.337500X0.475000X0.337500X-0.475000X0.337500X-0.475000X-0.337500X0*%
%TD*%
%TA.AperFunction,SMDPad,CuDef*%
%ADD20RoundRect,0.250000X-0.350000X-0.450000X0.350000X-0.450000X0.350000X0.450000X-0.350000X0.450000X0*%
%TD*%
%TA.AperFunction,SMDPad,CuDef*%
%ADD21RoundRect,0.250000X-0.550000X1.500000X-0.550000X-1.500000X0.550000X-1.500000X0.550000X1.500000X0*%
%TD*%
%TA.AperFunction,ComponentPad*%
%ADD22R,2.500000X2.500000*%
%TD*%
%TA.AperFunction,ComponentPad*%
%ADD23C,0.800000*%
%TD*%
%TA.AperFunction,ComponentPad*%
%ADD24C,6.400000*%
%TD*%
%TA.AperFunction,SMDPad,CuDef*%
%ADD25RoundRect,0.250000X0.350000X0.450000X-0.350000X0.450000X-0.350000X-0.450000X0.350000X-0.450000X0*%
%TD*%
%TA.AperFunction,SMDPad,CuDef*%
%ADD26R,5.400000X4.900000*%
%TD*%
%TA.AperFunction,SMDPad,CuDef*%
%ADD27RoundRect,0.250000X-1.000000X1.400000X-1.000000X-1.400000X1.000000X-1.400000X1.000000X1.400000X0*%
%TD*%
%TA.AperFunction,ViaPad*%
%ADD28C,0.800000*%
%TD*%
%TA.AperFunction,Conductor*%
%ADD29C,0.250000*%
%TD*%
G04 APERTURE END LIST*
D10*
%TO.P,U1,1,BOOT*%
%TO.N,Net-(U1-BOOT)*%
X99200000Y-56092056D03*
%TO.P,U1,2,NC*%
%TO.N,unconnected-(U1-NC-Pad2)*%
X99200000Y-57362056D03*
%TO.P,U1,3,NC*%
%TO.N,unconnected-(U1-NC-Pad3)*%
X99200000Y-58632056D03*
%TO.P,U1,4,VSENSE*%
%TO.N,Net-(J3-Pin_1)*%
X99200000Y-59902056D03*
%TO.P,U1,5,EN*%
%TO.N,unconnected-(U1-EN-Pad5)*%
X104600000Y-59902056D03*
%TO.P,U1,6,GND*%
%TO.N,GND*%
X104600000Y-58632056D03*
%TO.P,U1,7,VIN*%
%TO.N,/VIN*%
X104600000Y-57362056D03*
%TO.P,U1,8,PH*%
%TO.N,/PH*%
X104600000Y-56092056D03*
D11*
%TO.P,U1,9,GNDPAD*%
%TO.N,GND*%
X101300000Y-56197056D03*
X101300000Y-57397056D03*
X101300000Y-58697056D03*
X101300000Y-59797056D03*
D12*
X101900000Y-57997056D03*
D13*
X101900000Y-57997056D03*
D11*
X102500000Y-56197056D03*
X102500000Y-57397056D03*
X102500000Y-58697056D03*
X102500000Y-59797056D03*
%TD*%
D14*
%TO.P,C4,1*%
%TO.N,/VIN*%
X115500000Y-57375000D03*
%TO.P,C4,2*%
%TO.N,GND*%
X115500000Y-59450000D03*
%TD*%
D15*
%TO.P,J2,1,Pin_1*%
%TO.N,/VOUT*%
X73000000Y-70427056D03*
D16*
%TO.P,J2,2,Pin_2*%
%TO.N,GND*%
X73000000Y-72967056D03*
%TD*%
D17*
%TO.P,J3,1,Pin_1*%
%TO.N,Net-(J3-Pin_1)*%
X92960000Y-65697056D03*
D18*
%TO.P,J3,2,Pin_2*%
%TO.N,Net-(J3-Pin_2)*%
X95500000Y-65697056D03*
%TD*%
D17*
%TO.P,J5,1,Pin_1*%
%TO.N,Net-(J3-Pin_1)*%
X92960000Y-73697056D03*
D18*
%TO.P,J5,2,Pin_2*%
%TO.N,Net-(J5-Pin_2)*%
X95500000Y-73697056D03*
%TD*%
D14*
%TO.P,C1,1*%
%TO.N,/VIN*%
X111000000Y-57412500D03*
%TO.P,C1,2*%
%TO.N,GND*%
X111000000Y-59487500D03*
%TD*%
D17*
%TO.P,J4,1,Pin_1*%
%TO.N,Net-(J3-Pin_1)*%
X92960000Y-69697056D03*
D18*
%TO.P,J4,2,Pin_2*%
%TO.N,Net-(J4-Pin_2)*%
X95500000Y-69697056D03*
%TD*%
D15*
%TO.P,J1,1,Pin_1*%
%TO.N,GND*%
X112960000Y-66737056D03*
D16*
%TO.P,J1,2,Pin_2*%
%TO.N,/VIN*%
X112960000Y-64197056D03*
%TD*%
D19*
%TO.P,C2,1*%
%TO.N,Net-(U1-BOOT)*%
X97000000Y-53234556D03*
%TO.P,C2,2*%
%TO.N,/PH*%
X97000000Y-51159556D03*
%TD*%
D20*
%TO.P,R4,1*%
%TO.N,Net-(J5-Pin_2)*%
X98960000Y-73697056D03*
%TO.P,R4,2*%
%TO.N,GND*%
X100960000Y-73697056D03*
%TD*%
%TO.P,R2,1*%
%TO.N,Net-(J3-Pin_2)*%
X98960000Y-65697056D03*
%TO.P,R2,2*%
%TO.N,GND*%
X100960000Y-65697056D03*
%TD*%
%TO.P,R3,1*%
%TO.N,Net-(J4-Pin_2)*%
X98960000Y-69697056D03*
%TO.P,R3,2*%
%TO.N,GND*%
X100960000Y-69697056D03*
%TD*%
D21*
%TO.P,C3,1*%
%TO.N,/VOUT*%
X83000000Y-68897056D03*
%TO.P,C3,2*%
%TO.N,GND*%
X83000000Y-74497056D03*
%TD*%
D22*
%TO.P,TP3,1,1*%
%TO.N,/VOUT*%
X71300000Y-58300000D03*
%TD*%
D23*
%TO.P,H3,1,1*%
%TO.N,GND*%
X113797056Y-81197056D03*
X114500000Y-79500000D03*
X114500000Y-82894112D03*
X116197056Y-78797056D03*
D24*
X116197056Y-81197056D03*
D23*
X116197056Y-83597056D03*
X117894112Y-79500000D03*
X117894112Y-82894112D03*
X118597056Y-81197056D03*
%TD*%
D20*
%TO.P,R5,1*%
%TO.N,Net-(J3-Pin_1)*%
X98960000Y-77697056D03*
%TO.P,R5,2*%
%TO.N,GND*%
X100960000Y-77697056D03*
%TD*%
D25*
%TO.P,R1,1*%
%TO.N,Net-(J3-Pin_1)*%
X95500000Y-60197056D03*
%TO.P,R1,2*%
%TO.N,/VOUT*%
X93500000Y-60197056D03*
%TD*%
D23*
%TO.P,H2,1,1*%
%TO.N,GND*%
X113902944Y-43697056D03*
X114605888Y-42000000D03*
X114605888Y-45394112D03*
X116302944Y-41297056D03*
D24*
X116302944Y-43697056D03*
D23*
X116302944Y-46097056D03*
X118000000Y-42000000D03*
X118000000Y-45394112D03*
X118702944Y-43697056D03*
%TD*%
D22*
%TO.P,TP1,1,1*%
%TO.N,/VIN*%
X116500000Y-53000000D03*
%TD*%
D23*
%TO.P,H1,1,1*%
%TO.N,GND*%
X68600000Y-44000000D03*
X69302944Y-42302944D03*
X69302944Y-45697056D03*
X71000000Y-41600000D03*
D24*
X71000000Y-44000000D03*
D23*
X71000000Y-46400000D03*
X72697056Y-42302944D03*
X72697056Y-45697056D03*
X73400000Y-44000000D03*
%TD*%
D26*
%TO.P,L1,1,1*%
%TO.N,/PH*%
X83097056Y-50100000D03*
%TO.P,L1,2,2*%
%TO.N,/VOUT*%
X83097056Y-61900000D03*
%TD*%
D27*
%TO.P,D1,1,K*%
%TO.N,/PH*%
X110400000Y-49197056D03*
%TO.P,D1,2,A*%
%TO.N,GND*%
X103600000Y-49197056D03*
%TD*%
D23*
%TO.P,H4,1,1*%
%TO.N,GND*%
X68902944Y-81197056D03*
X69605888Y-79500000D03*
X69605888Y-82894112D03*
X71302944Y-78797056D03*
D24*
X71302944Y-81197056D03*
D23*
X71302944Y-83597056D03*
X73000000Y-79500000D03*
X73000000Y-82894112D03*
X73702944Y-81197056D03*
%TD*%
D28*
%TO.N,GND*%
X101000000Y-80500000D03*
X111000000Y-61000000D03*
X101000000Y-49500000D03*
X83000000Y-77500000D03*
%TD*%
D29*
%TO.N,/VIN*%
X111000000Y-57412500D02*
X110949556Y-57362056D01*
X111037500Y-57375000D02*
X111000000Y-57412500D01*
%TO.N,GND*%
X103600000Y-49197056D02*
X103297056Y-49500000D01*
X102565000Y-58632056D02*
X102500000Y-58697056D01*
X100960000Y-80460000D02*
X101000000Y-80500000D01*
X101300000Y-59797056D02*
X101300000Y-58697056D01*
X103297056Y-49500000D02*
X101000000Y-49500000D01*
X108500000Y-59500000D02*
X107632056Y-58632056D01*
X104600000Y-58632056D02*
X102565000Y-58632056D01*
X115500000Y-59450000D02*
X111037500Y-59450000D01*
X102500000Y-58697056D02*
X102500000Y-59797056D01*
X102500000Y-59797056D02*
X101300000Y-59797056D01*
X111000000Y-59487500D02*
X111000000Y-61000000D01*
X111037500Y-59450000D02*
X111000000Y-59487500D01*
X102500000Y-58697056D02*
X101300000Y-58697056D01*
X111000000Y-59487500D02*
X110987500Y-59500000D01*
X110987500Y-59500000D02*
X108500000Y-59500000D01*
X107632056Y-58632056D02*
X104600000Y-58632056D01*
%TO.N,Net-(U1-BOOT)*%
X97000000Y-53234556D02*
X99200000Y-55434556D01*
X99200000Y-55434556D02*
X99200000Y-56092056D01*
%TO.N,/VOUT*%
X83097056Y-68800000D02*
X83000000Y-68897056D01*
%TO.N,Net-(J3-Pin_1)*%
X94250000Y-77500000D02*
X98762944Y-77500000D01*
X95500000Y-62000000D02*
X92960000Y-64540000D01*
X98762944Y-77500000D02*
X98960000Y-77697056D01*
X92960000Y-69697056D02*
X92960000Y-65697056D01*
X95795000Y-59902056D02*
X99200000Y-59902056D01*
X95500000Y-60197056D02*
X95795000Y-59902056D01*
X92960000Y-73697056D02*
X92960000Y-76210000D01*
X92960000Y-64540000D02*
X92960000Y-65697056D01*
X92960000Y-76210000D02*
X94250000Y-77500000D01*
X92960000Y-73697056D02*
X92960000Y-69697056D01*
X95500000Y-60197056D02*
X95500000Y-62000000D01*
%TO.N,Net-(J3-Pin_2)*%
X98960000Y-65697056D02*
X95500000Y-65697056D01*
%TO.N,Net-(J4-Pin_2)*%
X98960000Y-69697056D02*
X95500000Y-69697056D01*
%TO.N,Net-(J5-Pin_2)*%
X98960000Y-73697056D02*
X95500000Y-73697056D01*
%TD*%
%TA.AperFunction,Conductor*%
%TO.N,/VOUT*%
G36*
X94436093Y-55518865D02*
G01*
X94482835Y-55564385D01*
X94500000Y-55627331D01*
X94500000Y-59336113D01*
X94481539Y-59401209D01*
X94465186Y-59427721D01*
X94410000Y-59594258D01*
X94399500Y-59697046D01*
X94399500Y-60697064D01*
X94410000Y-60799852D01*
X94465186Y-60966390D01*
X94481539Y-60992903D01*
X94500000Y-61057999D01*
X94500000Y-61419824D01*
X94491032Y-61466123D01*
X94465426Y-61505725D01*
X94426885Y-61532901D01*
X93441508Y-61976321D01*
X89500000Y-63749999D01*
X89500000Y-71427029D01*
X89483559Y-71488730D01*
X89438596Y-71534070D01*
X89377034Y-71551024D01*
X85092317Y-71586730D01*
X75614007Y-71665716D01*
X75577638Y-71660579D01*
X75028500Y-71497322D01*
X74689698Y-71396597D01*
X74689696Y-71396596D01*
X74689694Y-71396596D01*
X74573978Y-71376431D01*
X74522909Y-71373564D01*
X74516836Y-71373224D01*
X74516835Y-71373224D01*
X74399591Y-71380309D01*
X74287147Y-71414261D01*
X74234649Y-71437059D01*
X74133067Y-71496055D01*
X74131375Y-71497322D01*
X74096223Y-71515709D01*
X74057064Y-71522055D01*
X73718433Y-71522055D01*
X73670980Y-71512616D01*
X73496110Y-71440182D01*
X73251149Y-71381373D01*
X73000000Y-71361607D01*
X72748850Y-71381373D01*
X72503889Y-71440182D01*
X72329020Y-71512616D01*
X72281567Y-71522055D01*
X71933755Y-71522055D01*
X71873843Y-71506621D01*
X71779179Y-71454380D01*
X71715921Y-71430142D01*
X71580110Y-71398688D01*
X71540199Y-71400649D01*
X71483678Y-71390076D01*
X71438003Y-71355145D01*
X71412996Y-71303366D01*
X71254762Y-70582006D01*
X71252663Y-70541563D01*
X71265565Y-70427056D01*
X71245368Y-70247801D01*
X71185789Y-70077534D01*
X71133240Y-69993904D01*
X71117117Y-69954507D01*
X68132145Y-56346543D01*
X68132366Y-56292420D01*
X68155624Y-56243544D01*
X68197487Y-56209232D01*
X68249976Y-56196023D01*
X94372713Y-55503375D01*
X94436093Y-55518865D01*
G37*
%TD.AperFunction*%
%TD*%
%TA.AperFunction,Conductor*%
%TO.N,GND*%
G36*
X74545645Y-71881137D02*
G01*
X77300000Y-72700000D01*
X87277229Y-72798784D01*
X87338707Y-72815802D01*
X87383591Y-72861133D01*
X87400000Y-72922778D01*
X87400000Y-78376000D01*
X87383387Y-78438000D01*
X87338000Y-78483387D01*
X87276000Y-78500000D01*
X82937132Y-78500000D01*
X82901561Y-78494788D01*
X82868980Y-78479592D01*
X79100000Y-76000000D01*
X79099999Y-76000000D01*
X78784399Y-76004098D01*
X71525608Y-76098368D01*
X71462932Y-76082299D01*
X71416882Y-76036843D01*
X71400000Y-75974379D01*
X71400000Y-72025683D01*
X71418505Y-71960516D01*
X71468496Y-71914799D01*
X71535053Y-71902177D01*
X71598309Y-71926415D01*
X71657669Y-71970852D01*
X71792517Y-72021147D01*
X71852127Y-72027556D01*
X74147872Y-72027555D01*
X74207483Y-72021147D01*
X74342331Y-71970852D01*
X74436004Y-71900727D01*
X74488502Y-71877929D01*
X74545645Y-71881137D01*
G37*
%TD.AperFunction*%
%TD*%
%TA.AperFunction,Conductor*%
%TO.N,/VIN*%
G36*
X118438000Y-51016613D02*
G01*
X118483387Y-51062000D01*
X118500000Y-51124000D01*
X118500000Y-58126000D01*
X118483387Y-58188000D01*
X118438000Y-58233387D01*
X118376000Y-58250000D01*
X109529272Y-58250000D01*
X109473818Y-58236909D01*
X109000000Y-58000000D01*
X105807868Y-58000000D01*
X105768709Y-57993654D01*
X105733557Y-57975267D01*
X105617331Y-57888260D01*
X105482483Y-57837965D01*
X105482482Y-57837964D01*
X105422873Y-57831556D01*
X105422869Y-57831556D01*
X103999499Y-57831556D01*
X103937499Y-57814943D01*
X103892112Y-57769556D01*
X103875499Y-57707556D01*
X103875499Y-57129500D01*
X103892112Y-57067500D01*
X103937499Y-57022113D01*
X103999499Y-57005500D01*
X105494377Y-57005500D01*
X105499460Y-57005384D01*
X105517269Y-57004981D01*
X105528495Y-57004472D01*
X105551365Y-57002915D01*
X108262649Y-56756434D01*
X108391481Y-56727400D01*
X108451764Y-56705213D01*
X108568679Y-56643800D01*
X109065255Y-56293275D01*
X109116366Y-56272272D01*
X109226156Y-56253973D01*
X109239879Y-56251687D01*
X109260263Y-56250000D01*
X114500000Y-56250000D01*
X114500000Y-51124000D01*
X114516613Y-51062000D01*
X114562000Y-51016613D01*
X114624000Y-51000000D01*
X118376000Y-51000000D01*
X118438000Y-51016613D01*
G37*
%TD.AperFunction*%
%TD*%
%TA.AperFunction,Conductor*%
%TO.N,/PH*%
G36*
X109020227Y-44257224D02*
G01*
X112417707Y-45470609D01*
X112460730Y-45496849D01*
X112489760Y-45538042D01*
X112500000Y-45587385D01*
X112500000Y-53185748D01*
X112486098Y-53242796D01*
X112447509Y-53287052D01*
X108277166Y-56230823D01*
X108216883Y-56253010D01*
X105505599Y-56499491D01*
X105494373Y-56500000D01*
X103999499Y-56500000D01*
X103937499Y-56483387D01*
X103892112Y-56438000D01*
X103875499Y-56376000D01*
X103875499Y-55699187D01*
X103873928Y-55684573D01*
X103869091Y-55639573D01*
X103869090Y-55639570D01*
X103868841Y-55637254D01*
X103880595Y-55569818D01*
X103926338Y-55518894D01*
X103992131Y-55500000D01*
X107750000Y-55500000D01*
X108750000Y-53250000D01*
X108750000Y-45750000D01*
X98750000Y-45750000D01*
X98750000Y-52126000D01*
X98733387Y-52188000D01*
X98688000Y-52233387D01*
X98626000Y-52250000D01*
X97890716Y-52250000D01*
X97825620Y-52231539D01*
X97794334Y-52212242D01*
X97627797Y-52157056D01*
X97525009Y-52146556D01*
X96474991Y-52146556D01*
X96372203Y-52157056D01*
X96205665Y-52212242D01*
X96174380Y-52231539D01*
X96109284Y-52250000D01*
X95124000Y-52250000D01*
X95062000Y-52233387D01*
X95016613Y-52188000D01*
X95000000Y-52126000D01*
X95000000Y-45750000D01*
X87000000Y-45750000D01*
X87000000Y-53626000D01*
X86983387Y-53688000D01*
X86938000Y-53733387D01*
X86876000Y-53750000D01*
X79124000Y-53750000D01*
X79062000Y-53733387D01*
X79016613Y-53688000D01*
X79000000Y-53626000D01*
X79000000Y-44374000D01*
X79016613Y-44312000D01*
X79062000Y-44266613D01*
X79124000Y-44250000D01*
X108978521Y-44250000D01*
X109020227Y-44257224D01*
G37*
%TD.AperFunction*%
%TD*%
%TA.AperFunction,Conductor*%
%TO.N,GND*%
G36*
X102492927Y-63763743D02*
G01*
X102537090Y-63801926D01*
X103750000Y-65500000D01*
X103750000Y-65499999D01*
X103750001Y-65500000D01*
X104018313Y-65495054D01*
X111799371Y-65351624D01*
X111843499Y-65358877D01*
X111882185Y-65381313D01*
X112016338Y-65495890D01*
X112016340Y-65495891D01*
X112016341Y-65495892D01*
X112231141Y-65627522D01*
X112463889Y-65723929D01*
X112708852Y-65782739D01*
X112960000Y-65802505D01*
X113211148Y-65782739D01*
X113456111Y-65723929D01*
X113688859Y-65627522D01*
X113903659Y-65495892D01*
X114088918Y-65337665D01*
X114125459Y-65316022D01*
X114167159Y-65307978D01*
X114475230Y-65302299D01*
X114537753Y-65317894D01*
X114584009Y-65362762D01*
X114601503Y-65424784D01*
X114699607Y-73567404D01*
X114684312Y-73628574D01*
X110535315Y-81185676D01*
X110489770Y-81232714D01*
X110426619Y-81250000D01*
X99875784Y-81250000D01*
X99813273Y-81233091D01*
X99767811Y-81186975D01*
X99751797Y-81124229D01*
X99759186Y-80606932D01*
X99785246Y-78782778D01*
X99795013Y-78736284D01*
X99821548Y-78696875D01*
X99902712Y-78615712D01*
X99994814Y-78466390D01*
X100049999Y-78299853D01*
X100060500Y-78197065D01*
X100060499Y-77197048D01*
X100049999Y-77094259D01*
X99994814Y-76927722D01*
X99902712Y-76778400D01*
X99852183Y-76727871D01*
X99824969Y-76686826D01*
X99815879Y-76638424D01*
X99843217Y-74724805D01*
X99852985Y-74678311D01*
X99879519Y-74638904D01*
X99902712Y-74615712D01*
X99994814Y-74466390D01*
X100049999Y-74299853D01*
X100060500Y-74197065D01*
X100060499Y-73197048D01*
X100049999Y-73094259D01*
X99994814Y-72927722D01*
X99902712Y-72778400D01*
X99895103Y-72766063D01*
X99896088Y-72765455D01*
X99881307Y-72743162D01*
X99872217Y-72694761D01*
X99901410Y-70651231D01*
X99919857Y-70587915D01*
X99994814Y-70466390D01*
X100049999Y-70299853D01*
X100060500Y-70197065D01*
X100060499Y-69197048D01*
X100049999Y-69094259D01*
X99994814Y-68927722D01*
X99976300Y-68897707D01*
X99946553Y-68849477D01*
X99928105Y-68782611D01*
X99959908Y-66556393D01*
X99978357Y-66493070D01*
X99994814Y-66466390D01*
X100049999Y-66299853D01*
X100060500Y-66197065D01*
X100060499Y-65197048D01*
X100049999Y-65094259D01*
X99994814Y-64927722D01*
X99994813Y-64927721D01*
X99990255Y-64913964D01*
X99994645Y-64912509D01*
X99983954Y-64873159D01*
X99998253Y-63872229D01*
X100015449Y-63810980D01*
X100060753Y-63766319D01*
X100122241Y-63750000D01*
X102436187Y-63750000D01*
X102492927Y-63763743D01*
G37*
%TD.AperFunction*%
%TD*%
M02*
