M48
; DRILL file {KiCad 7.0.1} date Fri Apr 21 16:13:57 2023
; FORMAT={-:-/ absolute / inch / decimal}
; #@! TF.CreationDate,2023-04-21T16:13:57+02:00
; #@! TF.GenerationSoftware,Kicad,Pcbnew,7.0.1
; #@! TF.FileFunction,Plated,1,2,PTH
FMAT,2
INCH
; #@! TA.AperFunction,Plated,PTH,ComponentDrill
T1C0.0118
; #@! TA.AperFunction,Plated,PTH,ViaDrill
T2C0.0157
; #@! TA.AperFunction,Plated,PTH,ComponentDrill
T3C0.0197
; #@! TA.AperFunction,Plated,PTH,ComponentDrill
T4C0.0394
; #@! TA.AperFunction,Plated,PTH,ComponentDrill
T5C0.0433
; #@! TA.AperFunction,Plated,PTH,ComponentDrill
T6C0.0472
; #@! TA.AperFunction,Plated,PTH,ComponentDrill
T7C0.1260
%
G90
G05
T1
X3.9882Y-2.2125
X3.9882Y-2.2597
X3.9882Y-2.3109
X3.9882Y-2.3542
X4.0354Y-2.2125
X4.0354Y-2.2597
X4.0354Y-2.3109
X4.0354Y-2.3542
T2
X3.2677Y-3.0512
X3.9764Y-1.9488
X3.9764Y-3.1693
X4.3701Y-2.4016
T3
X2.7008Y-1.7323
X2.7127Y-3.1967
X2.7285Y-1.6655
X2.7285Y-1.7991
X2.7404Y-3.1299
X2.7404Y-3.2635
X2.7953Y-1.6378
X2.7953Y-1.8268
X2.8072Y-3.1022
X2.8072Y-3.2912
X2.8621Y-1.6655
X2.8621Y-1.7991
X2.874Y-3.1299
X2.874Y-3.2635
X2.8898Y-1.7323
X2.9017Y-3.1967
X4.4802Y-3.1967
X4.4844Y-1.7204
X4.5079Y-3.1299
X4.5079Y-3.2635
X4.512Y-1.6535
X4.512Y-1.7872
X4.5747Y-3.1022
X4.5747Y-3.2912
X4.5789Y-1.6259
X4.5789Y-1.8148
X4.6415Y-3.1299
X4.6415Y-3.2635
X4.6457Y-1.6535
X4.6457Y-1.7872
X4.6692Y-3.1967
X4.6733Y-1.7204
T4
X3.6598Y-2.5865
X3.6598Y-2.744
X3.6598Y-2.9015
X3.7598Y-2.5865
X3.7598Y-2.744
X3.7598Y-2.9015
T5
X2.874Y-2.7727
X2.874Y-2.8727
X4.4472Y-2.5274
X4.4472Y-2.6274
T6
X2.8071Y-2.2953
X4.5866Y-2.0866
T7
X2.7953Y-1.7323
X2.8072Y-3.1967
X4.5747Y-3.1967
X4.5789Y-1.7204
T0
M30
